<svg version="1" xmlns="http://www.w3.org/2000/svg" width="190.667" height="190.667" viewBox="0 0 143.000000 143.000000"><path d="M60.5 12.6c-5.5 3.1-10.2 5.8-10.4 6-.5.4 10 18.3 11.2 19.1 1.3.8 20.2.7 21.6-.1C83.9 37 94 19.8 94 18.7 94 17.8 73.5 7 71.9 7c-.8 0-5.9 2.5-11.4 5.6zM36.5 25.7c-3.9 2-8.8 4.8-11 6.2-3.6 2.4-4 3.1-4.1 7.2-.1 6.1 1.6 19.1 2.7 20.5.8 1 19.4 1.3 20.3.3 1.9-1.9 9.6-16.4 9.6-18 0-1.5-8.4-17.3-10.4-19.6-.1-.1-3.3 1.4-7.1 3.4zM95.3 31.1c-2.9 5-5.3 9.8-5.3 10.7 0 1 1.8 4.8 4 8.6 2.2 3.7 4 7.2 4 7.6 0 1.6 3.7 2.3 12.3 2.4 5 .1 9.2-.3 9.6-.9 1.7-2.1 3.7-23.3 2.4-25.1-.7-1-20.5-12.4-21.5-12.4-.2 0-2.7 4.1-5.5 9.1zM61.7 46.1C60 47.1 51 62 51 64c0 1.5 5.3 11.2 8.7 15.7l2.4 3.3H82l2.8-3.9c1.6-2.2 4.2-6.5 5.8-9.5l2.9-5.6-3.5-6.5c-6.4-12-6.4-12-17.3-12.1-5.2 0-10.2.3-11 .7zM27.7 67.8c-2.2.4-1.6 2.8 3.6 15.2 3.9 9.3 11.2 22 12.5 22 1.1-.1 10.2-16.8 10.2-18.6 0-2-7.5-15.7-9.5-17.4-1.4-1.1-12.9-1.9-16.8-1.2zM99.1 69.5c-1 1.1-2.1 2.7-2.5 3.5-.3.8-2 3.7-3.6 6.5-1.6 2.7-2.9 5.7-3 6.6 0 1.7 8.6 17.5 10.1 18.4 2.4 1.6 19.8-34 17.6-36.1-.3-.3-4.2-.7-8.7-.7-7-.2-8.4.1-9.9 1.8zM64.1 90c-3.2.5-4 1.4-9.8 11.4L48 112.3l10.5 10.3c13.8 13.7 13.2 13.7 27 0L96 112.2l-6.1-10.7c-3.4-5.8-6.8-10.9-7.5-11.2-1.9-.7-14.1-.9-18.3-.3z"/></svg>